# xmcd CD database file
#
# Track frame offsets:
#	150
#	14129
#	27283
#	41698
#	59998
#	74808
#	90188
#	108742
#	123632
#	140725
#	157039
#	174176
#
# Disc length: 2570 seconds
#
# Revision: 0
# Processed by: cddbd v1.5.2PL0 Copyright (c) Steve Scherf et al.
# Submitted via: CDex 1.86
#
DISCID=b70a080c
DTITLE=Courtney Conway - 21 Days
DYEAR=2014
DGENRE=Country
TTITLE0=21 Days
TTITLE1=There's A Door
TTITLE2=Dance
TTITLE3=Sweet On You
TTITLE4=We Are In Love
TTITLE5=Burning Your Memory Down
TTITLE6=Courtney Conway And Sam Hawksley - Hard To Forget
TTITLE7=What If You Do
TTITLE8=Free Like A Summer Breeze
TTITLE9=Boom Boom Boom
TTITLE10=Take A Little Chance
TTITLE11=Daddy's Little Girl
EXTD=YEAR: 2014
EXTT0=
EXTT1=
EXTT2=
EXTT3=
EXTT4=
EXTT5=
EXTT6=
EXTT7=
EXTT8=
EXTT9=
EXTT10=
EXTT11=
PLAYORDER=
